# xmcd
#
# Track frame offsets:
#	150
#	21927
#	38287
#	52305
#	65540
#	77745
#	95335
#	111620
#	133457
#	149937
#
# Disc length: 2185 seconds
#
# Revision: 5
# Processed by: cddbd v1.5.2PL0 Copyright (c) Steve Scherf et al.
# Submitted via: audiograbber 1.83.01
#
DISCID=9b08870a
DTITLE=Willie Nelson - Half Nelson
DYEAR=1985
DGENRE=Oldies
TTITLE0=Willie Nelson and Merle Haggard_Pancho And Lefty 
TTITLE1=Willie Nelson and Lacy J, Dalton_Slow Movin' Outlaw 
TTITLE2=Willie Nelson and Neil Young_Are There Any More Real Cowboys  
TTITLE3=Willie Nelson and Hank Williams_I Told A Lie To My Heart  
TTITLE4=Willie Nelson and Mel Tillis_Texas On A Saturday Night 
TTITLE5=Willie Nelson and Ray Charles_Seven Spanish Angels 
TTITLE6=Willie Nelson and Julio Iglesias_To All The Girls I've Loved Before  
TTITLE7=Willie Nelson and Carlos Santana_They All Went To Mexico 
TTITLE8=Willie Nelson and Leon Russell_Honky Tonk Women  
TTITLE9=Willie Nelson and George Jones_Half A Man  
EXTD=
EXTT0=
EXTT1=
EXTT2=
EXTT3=
EXTT4=
EXTT5=
EXTT6=
EXTT7=
EXTT8=
EXTT9=
PLAYORDER=
